# xmcd
#
# Track frame offsets: 
#        150
#        21605
#        40903
#        51188
#        72807
#        95664
#        109087
#        127507
#        151132
#        164807
#        177048
#        195546
#        211946
#        234385
#        254365
#
# Disc length: 3672 seconds
#
# Revision: 0
# Processed by: cddbd v1.5.2PL0 Copyright (c) Steve Scherf et al.
# Submitted via: ExactAudioCopyFreeDBPlugin 1.0
#
DISCID=c80e560f
DTITLE=Various Artist - Back Porch Music Volume 16
DYEAR=2013
DGENRE=Bluegrass
TTITLE0=Tift Merritt - Traveling Alone
TTITLE1=Putnam Smith - Succotash
TTITLE2=Anna Roberts-Gevalt, Elizabeth LaPrelle - Sun To Sun
TTITLE3=John Stickley Trio - Palm Tree
TTITLE4=Tim O'Brien, Darrell Scott - Long Time Gone
TTITLE5=Big Country Bluegrass - I'm Putting on my Leaving Shoes
TTITLE6=Rayna Gellert - Nothing
TTITLE7=Ken and Brad Kolodner - Liza Jane - Sandy Boys - Hangman's
TTITLE8=The Kickin Grass Band - Walk With Me
TTITLE9=The South Carolina Broadcasters - When I'm Gone
TTITLE10=The Honey Dewdrops - No More Trouble
TTITLE11=The Gravy Boys - Darlene
TTITLE12=Mike Compton, Joe Newberry - Evening Prayer Blues
TTITLE13=Catfish Keith - Aberdeen, Mississippi Blues
TTITLE14=Williamson Brothers - Song For Jimmy Campbell
EXTD=
EXTT0=
EXTT1=
EXTT2=
EXTT3=
EXTT4=
EXTT5=
EXTT6=
EXTT7=
EXTT8=
EXTT9=
EXTT10=
EXTT11=
EXTT12=
EXTT13=
EXTT14=
PLAYORDER=
